<?xml version="1.0" encoding="UTF-8" standalone="no"?>
<!DOCTYPE svg PUBLIC "-//W3C//DTD SVG 1.1//EN" "http://www.w3.org/Graphics/SVG/1.1/DTD/svg11.dtd">
<svg width="100%" height="100%" viewBox="0 0 208 52" version="1.1" xmlns="http://www.w3.org/2000/svg" xmlns:xlink="http://www.w3.org/1999/xlink" xml:space="preserve" xmlns:serif="http://www.serif.com/" style="fill-rule:evenodd;clip-rule:evenodd;stroke-linejoin:round;stroke-miterlimit:1.41421;">
    <g id="Layer-1" serif:id="Layer 1" transform="matrix(1,0,0,1,-6,-994.362)">
        <g id="path4180" transform="matrix(1,0,0,1,0,988.362)">
            <path d="M6,6L6,58L58,58L58,6L6,6ZM199.109,16.992C194.517,16.992 190.971,18.387 188.477,21.18C185.982,23.958 184.734,27.879 184.734,32.939C184.734,38.043 185.974,41.998 188.455,44.805C190.95,47.597 194.488,48.992 199.066,48.992C203.546,48.992 207.04,47.57 209.549,44.721C212.072,41.872 213.334,37.958 213.334,32.982C213.334,27.993 212.079,24.081 209.57,21.246C207.061,18.411 203.575,16.992 199.109,16.992ZM144.186,17.354L131.902,48.549L118.947,30.984L131.449,17.482L127.176,17.482L113.078,32.898L113.078,17.482L109.463,17.482L109.463,48.566L113.078,48.566L113.078,36.385L116.33,33.492L127.664,48.566L135.553,48.566L139.379,38.68L151.84,38.68L155.711,48.566L159.453,48.566L147.227,17.354L144.186,17.354ZM74.676,17.482L74.676,48.566L92.008,48.566L92.008,45.295L78.291,45.295L78.291,17.482L74.676,17.482ZM97.301,17.482L97.301,48.566L100.914,48.566L100.914,17.482L97.301,17.482ZM163.727,17.482L163.727,48.566L181.055,48.566L181.055,45.295L167.34,45.295L167.34,17.482L163.727,17.482ZM199.109,20.225C202.54,20.225 205.128,21.308 206.871,23.477C208.629,25.631 209.508,28.801 209.508,32.982C209.508,37.207 208.629,40.403 206.871,42.572C205.113,44.741 202.511,45.824 199.066,45.824C195.65,45.824 193.041,44.741 191.24,42.572C189.454,40.389 188.563,37.193 188.563,32.982C188.563,28.829 189.454,25.667 191.24,23.498C193.041,21.315 195.665,20.225 199.109,20.225ZM145.652,21.309C146.148,23.08 146.632,24.576 147.1,25.795L150.713,35.428L140.654,35.428L144.313,25.795C144.894,24.165 145.34,22.669 145.652,21.309Z" style="fill:url(#_Linear1);fill-rule:nonzero;"/>
        </g>
        <path id="path3139" d="M16,1004.36L16,1036.36L32.593,1036.36L32.593,1025.7L26.667,1025.7L26.667,1004.36L16,1004.36ZM32.593,1004.36L32.593,1015.03L48,1015.03L48,1004.36L32.593,1004.36ZM37.333,1020.36L37.333,1036.36L48,1036.36L48,1020.36L37.333,1020.36Z" style="fill:url(#_Linear2);fill-rule:nonzero;"/>
    </g>
    <defs>
        <linearGradient id="_Linear1" x1="0" y1="0" x2="1" y2="0" gradientUnits="userSpaceOnUse" gradientTransform="matrix(3.18468e-15,-52.0097,52.0097,3.18468e-15,82,54)"><stop offset="0" style="stop-color:rgb(152,1,1);stop-opacity:1"/><stop offset="1" style="stop-color:rgb(212,0,0);stop-opacity:1"/></linearGradient>
        <linearGradient id="_Linear2" x1="0" y1="0" x2="1" y2="0" gradientUnits="userSpaceOnUse" gradientTransform="matrix(1.64874e-15,26.9259,-26.9259,1.64874e-15,29.4891,1001.93)"><stop offset="0" style="stop-color:white;stop-opacity:1"/><stop offset="1" style="stop-color:rgb(204,204,207);stop-opacity:1"/></linearGradient>
    </defs>
</svg>
