<?xml version="1.0" encoding="UTF-8" standalone="no"?><!DOCTYPE svg PUBLIC "-//W3C//DTD SVG 1.1//EN" "http://www.w3.org/Graphics/SVG/1.1/DTD/svg11.dtd"><svg width="100%" height="100%" viewBox="0 0 3300 1280" version="1.1" xmlns="http://www.w3.org/2000/svg" xmlns:xlink="http://www.w3.org/1999/xlink" xml:space="preserve" xmlns:serif="http://www.serif.com/" style="fill-rule:evenodd;clip-rule:evenodd;stroke-linejoin:round;stroke-miterlimit:1.41421;"><rect id="Page-1" serif:id="Page 1" x="0" y="0" width="3300" height="1279.17" style="fill:none;"/><g id="Layer-1" serif:id="Layer 1"><path d="M304.796,313.913l0,546.712c0,12.996 6.091,16.7 17.992,16.7l431.833,0c0,0 -15.034,-90.471 -101.642,-90.471l-257.717,0l0,-472.967c-30.25,0 -90.466,0.025 -90.466,0.025Z" style="fill:url(#_Linear1);fill-rule:nonzero;"/><path d="M1266.04,314.975l0,562.35l89.783,0l0,-302.917c0,-3.191 1.596,-4.804 4.804,-4.804l214.504,0c3.188,0 4.792,1.613 4.792,4.804l0,302.917l89.779,0l0,-302.917c0,-26.05 -9.366,-48.32 -28.096,-66.825c-18.737,-18.5 -40.895,-27.758 -66.475,-27.758l-219.308,0l0,-164.85l-89.783,0Z" style="fill:url(#_Linear2);fill-rule:nonzero;"/><path d="M1749.64,479.825c-11.196,0 -17.134,8.029 -17.134,15.967l0,381.533l89.775,0l0,-302.917c0,-3.191 1.596,-4.804 4.804,-4.804l214.501,0c3.187,0 4.804,1.613 4.804,4.804l0,302.917l89.775,0l0,-302.917c0,-26.05 -9.259,-48.32 -27.755,-66.825c-18.504,-18.5 -40.787,-27.758 -66.824,-27.758l-291.946,0Z" style="fill:url(#_Linear3);fill-rule:nonzero;"/><path d="M2192.19,479.825c0,0 17.987,89.779 93.05,89.779l214.641,0c3.196,0 4.809,1.613 4.809,4.804l0,58.934l-224.325,0c-92.563,0 -89.563,81.133 -89.563,81.133l0,68.271c0,26.037 9.254,48.312 27.75,66.821c18.513,18.5 40.783,27.758 66.833,27.758l309.075,0l0.001,-302.917c-0.001,-26.05 -9.255,-48.32 -27.755,-66.825c-18.496,-18.5 -40.779,-27.758 -66.825,-27.758l-307.691,0Zm88.387,302.921l0,-62.859l224.113,0l0,67.655l-219.305,0c-3.212,0 -4.808,-1.592 -4.808,-4.796Z" style="fill:url(#_Linear4);fill-rule:nonzero;"/><path d="M2749.33,479.825c-26.041,0 -48.312,9.258 -66.804,27.758c-18.508,18.505 -27.766,40.775 -27.766,66.825l0,302.917l89.775,0l0,-302.917c0,-3.191 1.604,-4.804 4.795,-4.804l155.142,0c83.717,0 87.192,-89.779 87.192,-89.779l-242.334,0Z" style="fill:url(#_Linear5);fill-rule:nonzero;"/><path d="M655.8,561.896c0,165.1 131.042,298.942 287.642,298.942c156.6,0 287.633,-133.842 287.633,-298.942c0,-10.133 0,-22.729 -5.517,-30.013c-14.304,150.988 -135.15,256.6 -282.116,256.6c-146.988,0 -267.83,-105.625 -282.117,-256.625c-5.525,7.309 -5.525,19.9 -5.525,30.038Z" style="fill:url(#_Linear6);fill-rule:nonzero;"/></g><defs><linearGradient id="_Linear1" x1="0" y1="0" x2="1" y2="0" gradientUnits="userSpaceOnUse" gradientTransform="matrix(0,401.754,-401.754,0,529.709,483.333)"><stop offset="0" style="stop-color:#0f1527;stop-opacity:1"/><stop offset="1" style="stop-color:#1a194e;stop-opacity:1"/></linearGradient><linearGradient id="_Linear2" x1="0" y1="0" x2="1" y2="0" gradientUnits="userSpaceOnUse" gradientTransform="matrix(0,401.754,-401.754,0,1467.87,483.333)"><stop offset="0" style="stop-color:#0f1527;stop-opacity:1"/><stop offset="1" style="stop-color:#1a194e;stop-opacity:1"/></linearGradient><linearGradient id="_Linear3" x1="0" y1="0" x2="1" y2="0" gradientUnits="userSpaceOnUse" gradientTransform="matrix(0,401.754,-401.754,0,1934.34,483.333)"><stop offset="0" style="stop-color:#0f1527;stop-opacity:1"/><stop offset="1" style="stop-color:#1a194e;stop-opacity:1"/></linearGradient><linearGradient id="_Linear4" x1="0" y1="0" x2="1" y2="0" gradientUnits="userSpaceOnUse" gradientTransform="matrix(0,401.754,-401.754,0,2392.63,483.333)"><stop offset="0" style="stop-color:#0f1527;stop-opacity:1"/><stop offset="1" style="stop-color:#1a194e;stop-opacity:1"/></linearGradient><linearGradient id="_Linear5" x1="0" y1="0" x2="1" y2="0" gradientUnits="userSpaceOnUse" gradientTransform="matrix(0,401.754,-401.754,0,2823.22,483.333)"><stop offset="0" style="stop-color:#0f1527;stop-opacity:1"/><stop offset="1" style="stop-color:#1a194e;stop-opacity:1"/></linearGradient><linearGradient id="_Linear6" x1="0" y1="0" x2="1" y2="0" gradientUnits="userSpaceOnUse" gradientTransform="matrix(0,328.53,-328.53,0,943.438,520.833)"><stop offset="0" style="stop-color:#b45426;stop-opacity:1"/><stop offset="1" style="stop-color:#d77c28;stop-opacity:1"/></linearGradient></defs></svg>